# xmcd
#
# Track frame offsets:
#	150
#	16542
#	33330
#	49988
#	68423
#	89057
#	103976
#	127995
#	157143
#	170515
#	187897
#	201584
#	232443
#	253542
#
# Disc length: 3644 seconds
#
# Revision: 0
# Processed by: cddbd v1.4PL0 Copyright (c) Steve Scherf et al.
# Submitted via: EasyCDDAExtractor 4.6.0.1
#
DISCID=c50e3a0e
DTITLE=Memphis La Blusera - Hoy es hoy
DYEAR=1900
DGENRE=Blues
TTITLE0=Caliente
TTITLE1=Animal Feliz
TTITLE2=La Ultima Lagrima
TTITLE3=El Viento te lo Dira
TTITLE4=Hoy es Hoy
TTITLE5=Vuelvo a Casa Mama
TTITLE6=Pais de Pegamento
TTITLE7=Una Ciudad
TTITLE8=Tangazo
TTITLE9=Adiccion
TTITLE10=Sr. Basurero
TTITLE11=Blues de Hamburgo
TTITLE12=La Zancada
TTITLE13=Es Simplemente Amor
EXTD=
EXTT0=
EXTT1=
EXTT2=
EXTT3=
EXTT4=
EXTT5=
EXTT6=
EXTT7=
EXTT8=
EXTT9=
EXTT10=
EXTT11=
EXTT12=
EXTT13=
PLAYORDER=
